<svg width="320" height="120" viewBox="0 0 320 120" fill="none" xmlns="http://www.w3.org/2000/svg">
  <rect width="320" height="120" rx="28" fill="#15151b"/>
  <circle cx="70" cy="60" r="34" fill="#6366f1" fill-opacity="0.25"/>
  <path d="M40 60C55 45 85 45 100 60C85 75 55 75 40 60Z" fill="#6366f1"/>
  <path d="M70 32L78 52H102L82 64L90 88L70 72L50 88L58 64L38 52H62L70 32Z" fill="#FDE047"/>
  <path d="M132 42C152 32 188 36 208 54C228 72 222 92 200 96C178 100 150 94 138 78" stroke="#F472B6" stroke-width="6" stroke-linecap="round"/>
  <text x="128" y="78" font-family="'DM Serif Display', serif" font-size="36" fill="#FFFFFF">Divide</text>
</svg>
